<svg xmlns:xlink="http://www.w3.org/1999/xlink" data-v-42743862="" width="31" height="24" viewBox="0 0 31 24" fill="none" xmlns="http://www.w3.org/2000/svg"><path d="M25.5328 3.27359C25.5252 3.25875 25.5125 3.24711 25.497 3.24078C23.71 2.42087 21.8242 1.83621 19.8867 1.50143C19.8691 1.49816 19.8509 1.50052 19.8348 1.50818C19.8186 1.51584 19.8052 1.5284 19.7966 1.54409C19.5398 2.01016 19.3067 2.4889 19.0981 2.97847C17.0097 2.66144 14.8854 2.66144 12.7969 2.97847C12.587 2.48765 12.3502 2.0088 12.0875 1.54409C12.0785 1.52875 12.065 1.51647 12.049 1.50886C12.0329 1.50125 12.0149 1.49866 11.9973 1.50143C10.0597 1.83551 8.17371 2.42021 6.38691 3.24082C6.37162 3.24731 6.35871 3.25838 6.34997 3.27251C2.77674 8.60867 1.7979 13.8136 2.27808 18.9541C2.27944 18.9667 2.28331 18.9789 2.28947 18.99C2.29563 19.0011 2.30395 19.0108 2.31394 19.0186C4.3946 20.5591 6.72185 21.7351 9.19637 22.4962C9.21379 22.5014 9.2324 22.5012 9.24969 22.4955C9.26698 22.4898 9.28212 22.479 9.29307 22.4645C9.82454 21.7413 10.2955 20.9756 10.7011 20.175C10.7066 20.164 10.7098 20.152 10.7104 20.1397C10.711 20.1274 10.7089 20.1151 10.7044 20.1036C10.6999 20.0922 10.693 20.0818 10.6842 20.0732C10.6754 20.0646 10.6649 20.058 10.6533 20.0537C9.91067 19.7696 9.19174 19.427 8.50323 19.0294C8.49072 19.022 8.48021 19.0117 8.47264 18.9993C8.46507 18.9869 8.46066 18.9729 8.4598 18.9584C8.45894 18.9439 8.46166 18.9294 8.46773 18.9163C8.47379 18.9031 8.483 18.8916 8.49455 18.8828C8.63902 18.7746 8.78358 18.662 8.92154 18.5483C8.93379 18.5382 8.94862 18.5317 8.96436 18.5296C8.9801 18.5275 8.99611 18.5298 9.0106 18.5363C13.5213 20.5949 18.4048 20.5949 22.8622 18.5363C22.8767 18.5294 22.8929 18.5267 22.9088 18.5287C22.9248 18.5306 22.9399 18.537 22.9523 18.5472C23.0903 18.6609 23.2349 18.7746 23.3804 18.8828C23.392 18.8915 23.4013 18.9029 23.4075 18.9161C23.4136 18.9292 23.4165 18.9436 23.4157 18.9581C23.415 18.9726 23.4107 18.9867 23.4032 18.9991C23.3957 19.0115 23.3853 19.0219 23.3728 19.0294C22.6859 19.4304 21.9663 19.7727 21.2217 20.0526C21.2102 20.057 21.1997 20.0638 21.1909 20.0726C21.1821 20.0813 21.1753 20.0918 21.1709 20.1033C21.1665 20.1149 21.1645 20.1273 21.1652 20.1396C21.1659 20.152 21.1692 20.164 21.1748 20.175C21.5872 20.9711 22.0575 21.7359 22.5818 22.4632C22.5924 22.4781 22.6075 22.4893 22.6248 22.4952C22.6422 22.5011 22.6609 22.5014 22.6785 22.496C25.1574 21.7375 27.4887 20.5615 29.572 19.0186C29.5821 19.0112 29.5906 19.0017 29.5968 18.9908C29.6029 18.9798 29.6067 18.9677 29.6079 18.9552C30.1827 13.0122 28.6454 7.84995 25.5328 3.27359ZM11.3747 15.8241C10.0166 15.8241 8.89763 14.5778 8.89763 13.0473C8.89763 11.5167 9.99493 10.2703 11.3747 10.2703C12.7652 10.2703 13.8734 11.5275 13.8517 13.0472C13.8517 14.5778 12.7544 15.8241 11.3747 15.8241ZM20.5331 15.8241C19.1751 15.8241 18.0561 14.5778 18.0561 13.0473C18.0561 11.5167 19.1534 10.2703 20.5331 10.2703C21.9238 10.2703 23.0319 11.5275 23.0102 13.0472C23.0102 14.5778 21.9238 15.8241 20.5331 15.8241Z" fill="#858585"></path></svg>