<svg xmlns:xlink="http://www.w3.org/1999/xlink" data-v-42743862="" width="25" height="24" viewBox="0 0 25 24" fill="none" xmlns="http://www.w3.org/2000/svg"><path fill-rule="evenodd" clip-rule="evenodd" d="M23.9454 12C23.9454 18.0751 19.0206 23 12.9454 23C6.8703 23 1.94543 18.0751 1.94543 12C1.94543 5.92487 6.8703 1 12.9454 1C19.0206 1 23.9454 5.92487 23.9454 12ZM13.3395 9.12069C12.2696 9.5657 10.1313 10.4868 6.92456 11.8839C6.40384 12.091 6.13106 12.2935 6.10623 12.4916C6.06426 12.8264 6.48348 12.9582 7.05434 13.1377C7.13199 13.1621 7.21245 13.1874 7.29493 13.2142C7.85657 13.3968 8.61208 13.6104 9.00484 13.6189C9.3611 13.6266 9.75874 13.4797 10.1977 13.1782C13.1939 11.1558 14.7405 10.1335 14.8376 10.1115C14.9061 10.0959 15.001 10.0764 15.0654 10.1335C15.1297 10.1907 15.1234 10.299 15.1165 10.328C15.075 10.5051 13.4294 12.035 12.5778 12.8267C12.3124 13.0735 12.1241 13.2485 12.0856 13.2885C11.9993 13.3781 11.9114 13.4628 11.827 13.5442C11.3052 14.0472 10.9139 14.4244 11.8486 15.0404C12.2978 15.3364 12.6573 15.5812 13.0159 15.8254C13.4075 16.0921 13.7981 16.3581 14.3035 16.6894C14.4322 16.7738 14.5552 16.8614 14.675 16.9468C15.1307 17.2717 15.5402 17.5636 16.046 17.5171C16.34 17.49 16.6436 17.2137 16.7978 16.3893C17.1622 14.4412 17.8785 10.2203 18.044 8.48089C18.0585 8.3285 18.0403 8.13347 18.0256 8.04786C18.011 7.96225 17.9804 7.84027 17.8691 7.74997C17.7373 7.64303 17.5338 7.62047 17.4428 7.62208C17.0291 7.62936 16.3943 7.85008 13.3395 9.12069Z" fill="#858585"></path></svg>